<svg width="342" height="488" viewBox="0 0 342 488" fill="none" xmlns="http://www.w3.org/2000/svg">
<path d="M66 18.4678C66 8.26837 74.2682 0 84.4677 0C141.625 0 198.91 0 257.499 0C267.716 0 276 8.14398 276 18.3613C276 28.5785 284.283 37 294.5 37C295.884 37 297.271 37 298.661 37C306.738 37 314.026 41.8561 317.107 49.3222C323.43 64.6471 329.659 80.0065 335.775 95.4181C336.931 98.3298 338.097 101.236 339.293 104.131C339.844 105.468 339.844 105.468 340.406 106.832C340.719 107.578 341.031 108.324 341.354 109.093C342.238 111.703 339.766 114 337.01 114C302.27 114 267.497 114 232 114C220.955 114 212 122.954 212 134C212 206.662 212 279.468 212 353.998C212 365.044 220.954 374 232 374C262.673 374 293.449 374 324.802 374C333.373 374 339.794 382.365 336.574 390.309C336.114 391.452 335.653 392.595 335.179 393.772C334.687 394.982 334.195 396.191 333.688 397.438C333.167 398.725 332.647 400.013 332.128 401.302C331.303 403.348 330.477 405.393 329.65 407.438C327.462 412.845 325.294 418.259 323.133 423.676C322.813 424.476 322.494 425.277 322.165 426.102C320.901 429.268 319.637 432.435 318.374 435.603C317.496 437.803 316.618 440.003 315.738 442.203C315.475 442.863 315.212 443.523 314.941 444.203C313.255 448.419 309.132 451 304.592 451C301.237 451 297.875 451 294.5 451C284.283 451 276 459.144 276 469.361C276 479.579 267.717 488 257.5 488C200.353 488 143.079 488 84.501 488C74.2837 488 66 479.856 66 469.639C66 459.421 57.7174 451 47.5001 451C46.1396 451 44.7767 451 43.4108 451C35.2979 451 27.9846 446.101 24.9267 438.586C20.2639 427.128 15.6497 415.651 11.0883 404.15C10.3235 402.223 9.55748 400.296 8.79031 398.369C7.69923 395.628 6.61269 392.884 5.52734 390.141C5.03734 388.912 5.03734 388.912 4.53745 387.659C4.07986 386.498 4.07986 386.498 3.61304 385.313C3.34865 384.647 3.08427 383.98 2.81187 383.293C1.18739 378.705 4.84406 374 9.71037 374C42.8813 374 76.1108 374 110 374C121.045 374 130 365.046 130 354C130 281.338 130 208.532 130 134.002C130 122.956 121.046 114 110 114C77.1716 114 44.2251 114 10.5792 114C5.10667 114 0.901371 108.935 2.93018 103.853C3.32794 102.85 3.72571 101.848 4.13553 100.815C4.56776 99.7375 4.99999 98.6605 5.44531 97.5508C5.89341 96.4242 6.34151 95.2975 6.80319 94.1368C8.23981 90.5271 9.68221 86.9197 11.125 83.3125C12.5413 79.7608 13.9565 76.2086 15.3713 72.6562C16.2907 70.3482 17.211 68.0405 18.1321 65.7332C21.1334 58.2082 24.0943 50.6688 26.9768 43.0975C28.559 38.977 32.4545 36.8892 36.8683 36.8976C37.236 36.8983 37.6041 36.8999 37.9727 36.9023C38.6793 36.9034 39.386 36.9044 40.1141 36.9054C42.7636 36.9106 45.4131 36.9246 48.0625 36.9375C57.959 36.972 66 28.9591 66 19.0625C66 18.8643 66 18.6661 66 18.4678Z" fill="#494F50"/>
<path d="M151 234C151 228.477 155.477 224 161 224C167.625 224 174.274 224 181 224C186.523 224 191 228.477 191 234C191 240.625 191 247.274 191 254C191 259.523 186.523 264 181 264C174.375 264 167.726 264 161 264C155.477 264 151 259.523 151 254C151 247.375 151 240.726 151 234Z" fill="#F68214"/>
</svg>
